{
  "asset": {
    "version": "2.0",
    "generator": "THREE.GLTFExporter"
  },
  "scenes": [
    {
      "name": "Scene",
      "nodes": [
        3,
        8,
        13,
        17
      ]
    }
  ],
  "scene": 0,
  "nodes": [
    {
      "name": "screw",
      "extras": {
        "name": "screw"
      }
    },
    {
      "matrix": [
        1,
        0,
        0,
        0,
        0,
        -4.371139028513937e-8,
        0.999999999999999,
        0,
        0,
        -0.999999999999999,
        -4.371139028513937e-8,
        0,
        0,
        0,
        0,
        1
      ],
      "name": "Collada_visual_scene_group",
      "extras": {
        "name": "Collada visual scene group"
      },
      "children": [
        0
      ]
    },
    {
      "matrix": [
        1,
        0,
        0,
        0,
        0,
        2.220446049250313e-16,
        -1,
        0,
        0,
        1,
        2.220446049250313e-16,
        0,
        0,
        0,
        0,
        1
      ],
      "name": "Sketchfab_model",
      "extras": {
        "name": "Sketchfab_model"
      },
      "children": [
        1
      ]
    },
    {
      "name": "Sketchfab_Scene",
      "children": [
        2
      ]
    },
    {
      "name": "screw",
      "extras": {
        "name": "screw"
      }
    },
    {
      "matrix": [
        1,
        0,
        0,
        0,
        0,
        -4.3711390729228576e-8,
        0.9999999999999991,
        0,
        0,
        -0.9999999999999991,
        -4.3711390729228576e-8,
        0,
        0,
        0,
        0,
        1
      ],
      "name": "Collada_visual_scene_group",
      "extras": {
        "name": "Collada visual scene group"
      },
      "children": [
        4
      ]
    },
    {
      "matrix": [
        1,
        0,
        0,
        0,
        0,
        2.220446049250313e-16,
        -1,
        0,
        0,
        1,
        2.220446049250313e-16,
        0,
        0,
        0,
        0,
        1
      ],
      "name": "Sketchfab_model",
      "extras": {
        "name": "Sketchfab_model"
      },
      "children": [
        5
      ]
    },
    {
      "name": "Sketchfab_Scene",
      "extras": {
        "name": "Sketchfab_Scene"
      },
      "children": [
        6
      ]
    },
    {
      "name": "scene.gltf",
      "children": [
        7
      ]
    },
    {
      "name": "screw",
      "extras": {
        "name": "screw"
      }
    },
    {
      "matrix": [
        1,
        0,
        0,
        0,
        0,
        -4.3711390729228576e-8,
        0.9999999999999991,
        0,
        0,
        -0.9999999999999991,
        -4.3711390729228576e-8,
        0,
        0,
        0,
        0,
        1
      ],
      "name": "Collada_visual_scene_group",
      "extras": {
        "name": "Collada visual scene group"
      },
      "children": [
        9
      ]
    },
    {
      "matrix": [
        1,
        0,
        0,
        0,
        0,
        2.220446049250313e-16,
        -1,
        0,
        0,
        1,
        2.220446049250313e-16,
        0,
        0,
        0,
        0,
        1
      ],
      "name": "Sketchfab_model",
      "extras": {
        "name": "Sketchfab_model"
      },
      "children": [
        10
      ]
    },
    {
      "name": "Sketchfab_Scene",
      "extras": {
        "name": "Sketchfab_Scene"
      },
      "children": [
        11
      ]
    },
    {
      "name": "scene.gltf",
      "children": [
        12
      ]
    },
    {
      "name": "Object_2",
      "extras": {
        "name": "Object_2"
      },
      "mesh": 0
    },
    {
      "name": "65ec0808a66a4c1e9fca9341658fa92dstlcleanermaterialmergergles",
      "extras": {
        "name": "65ec0808a66a4c1e9fca9341658fa92d.stl.cleaner.materialmerger.gles"
      },
      "children": [
        14
      ]
    },
    {
      "matrix": [
        7.777044773101807,
        0,
        0,
        0,
        0,
        1.7268508341276704e-15,
        -7.777044773101807,
        0,
        0,
        7.777044773101807,
        1.7268508341276704e-15,
        0,
        0,
        0,
        0,
        1
      ],
      "name": "Sketchfab_model",
      "extras": {
        "name": "Sketchfab_model"
      },
      "children": [
        15
      ]
    },
    {
      "matrix": [
        0.2,
        0,
        0,
        0,
        0,
        0.2,
        0,
        0,
        0,
        0,
        0.2,
        0,
        0,
        0,
        0,
        1
      ],
      "name": "Sketchfab_Scene",
      "children": [
        16
      ]
    }
  ],
  "bufferViews": [
    {
      "buffer": 0,
      "byteOffset": 0,
      "byteLength": 9696,
      "target": 34962,
      "byteStride": 12
    },
    {
      "buffer": 0,
      "byteOffset": 9696,
      "byteLength": 9696,
      "target": 34962,
      "byteStride": 12
    },
    {
      "buffer": 0,
      "byteOffset": 19392,
      "byteLength": 9168,
      "target": 34963
    }
  ],
  "buffers": [
    {
      "byteLength": 28560,
      "uri": "data:application/octet-stream;base64,"
    }
  ],
  "accessors": [
    {
      "bufferView": 0,
      "componentType": 5126,
      "count": 808,
      "max": [
        1,
        1,
        1
      ],
      "min": [
        -1,
        -1,
        -1
      ],
      "type": "VEC3"
    },
    {
      "bufferView": 1,
      "componentType": 5126,
      "count": 808,
      "max": [
        2.29019832611084,
        1.3259155750274658,
        2.477059841156006
      ],
      "min": [
        -3.0181000232696533,
        0.3259156048297882,
        0.007659522816538811
      ],
      "type": "VEC3"
    },
    {
      "bufferView": 2,
      "componentType": 5125,
      "count": 2292,
      "max": [
        807
      ],
      "min": [
        0
      ],
      "type": "SCALAR"
    }
  ],
  "materials": [
    {
      "pbrMetallicRoughness": {
        "baseColorFactor": [
          0.7912979403326302,
          0.008568125618069303,
          0.04091519690685311,
          1
        ],
        "metallicFactor": 0,
        "roughnessFactor": 0.6
      },
      "doubleSided": true,
      "name": "Scene_-_Root"
    }
  ],
  "meshes": [
    {
      "primitives": [
        {
          "mode": 4,
          "attributes": {
            "NORMAL": 0,
            "POSITION": 1
          },
          "indices": 2,
          "material": 0
        }
      ]
    }
  ]
}